<svg width="50" height="51" viewBox="0 0 50 51" fill="none" xmlns="http://www.w3.org/2000/svg">
<path d="M25 50C38.8071 50 50 38.8071 50 25C50 11.1929 38.8071 0 25 0C11.1929 0 0 11.1929 0 25C0 38.8071 11.1929 50 25 50Z" fill="#F58D89"/>
<path d="M47.3408 36.2305C45.2288 40.419 41.9854 43.932 37.9785 46.3711C37.569 46.6198 37.1524 46.8571 36.7285 47.083C33.1045 49.0114 29.0608 50.0165 24.9557 50.0092C20.8505 50.0018 16.8105 48.9824 13.1934 47.041C12.8203 46.8411 12.4528 46.6318 12.0908 46.4131C8.0529 43.9722 4.78419 40.4432 2.65918 36.2305C3.92657 33.7162 5.60828 31.4333 7.63378 29.4775C7.73144 29.3799 7.83692 29.2822 7.94044 29.1846C8.59135 28.5773 9.27394 28.0049 9.98535 27.4697C10.3369 27.2048 10.695 26.9492 11.0596 26.7031C11.3897 26.4818 11.7256 26.2673 12.0674 26.0596C12.2562 25.9456 12.4466 25.8337 12.6387 25.7236C13.2454 25.3779 13.8675 25.0576 14.5049 24.7627C14.8636 24.5954 15.2266 24.4375 15.5937 24.2891C15.793 24.2083 15.9938 24.1302 16.1963 24.0547C16.2705 24.0254 16.3447 23.998 16.4189 23.9707C16.5674 23.9167 16.7161 23.8643 16.8652 23.8135C17.5814 23.5661 18.3109 23.3519 19.0537 23.1709C19.2139 23.1318 19.375 23.0937 19.5371 23.0586C19.8164 22.9961 20.0986 22.9385 20.3818 22.8857L20.5225 22.8604C20.6504 22.8359 20.7793 22.8145 20.9082 22.793C21.0371 22.7715 21.1611 22.752 21.2881 22.7334C23.6277 22.3863 26.0044 22.3696 28.3486 22.6836C28.7262 22.7344 29.1012 22.7933 29.4736 22.8604L29.6103 22.8857L29.6523 22.8936C29.8476 22.9297 30.043 22.9697 30.2383 23.0107C31.21 23.2167 32.1682 23.4822 33.1074 23.8057C33.2871 23.8662 33.4652 23.9294 33.6416 23.9951L33.7764 24.0459C34.3584 24.2633 34.93 24.5023 35.4912 24.7627C36.1201 25.0537 36.7344 25.3698 37.334 25.7109C37.5573 25.8379 37.7787 25.9681 37.9981 26.1016C38.3014 26.2858 38.6006 26.4772 38.8955 26.6758C39.2607 26.9199 39.6188 27.1738 39.9697 27.4375C40.6967 27.9817 41.3937 28.565 42.0576 29.1846L42.2852 29.4004C44.3465 31.3731 46.0562 33.6829 47.3408 36.2305Z" fill="#EF7070"/>
<path d="M36.7285 40.6689V47.083C33.1045 49.0114 29.0608 50.0165 24.9557 50.0092C20.8505 50.0018 16.8105 48.9824 13.1934 47.041V40.6689C13.1934 39.7727 13.5493 38.9132 14.1829 38.2794C14.8166 37.6455 15.676 37.2893 16.5723 37.2891H33.3486C34.2449 37.2893 35.1045 37.6455 35.7383 38.2793C36.3721 38.9131 36.7283 39.7726 36.7285 40.6689Z" fill="#3E436D"/>
<path d="M32.6084 32.3086H17.3115V37.3867H32.6084V32.3086Z" fill="#27273D"/>
<path d="M7.25393 16.749L9.42483 17.0518V12.8525L7.25393 13.1553C7.13608 13.1712 7.02809 13.2296 6.95024 13.3195C6.87238 13.4094 6.83 13.5246 6.83107 13.6436V16.2656C6.83119 16.3837 6.87409 16.4978 6.95183 16.5866C7.02958 16.6755 7.13691 16.7332 7.25393 16.749V16.749Z" fill="#353B5B"/>
<path d="M14.6426 5.14258H35.2783C35.8159 5.14335 36.3311 5.35736 36.711 5.73763C37.0909 6.11791 37.3044 6.63337 37.3047 7.1709V24.7637H12.6133V7.1709C12.6135 6.63286 12.8275 6.11696 13.208 5.7366C13.5885 5.35624 14.1045 5.14258 14.6426 5.14258V5.14258Z" fill="#3E436D"/>
<path d="M40.9727 22.8613H8.94922C8.22272 22.8613 7.63379 23.4503 7.63379 24.1768V31.0918C7.63379 31.8183 8.22272 32.4072 8.94922 32.4072H40.9727C41.6992 32.4072 42.2881 31.8183 42.2881 31.0918V24.1768C42.2881 23.4503 41.6992 22.8613 40.9727 22.8613Z" fill="#3E436D"/>
<path d="M31.5166 7.86426C32.3186 7.86426 32.9687 7.5687 32.9687 7.2041C32.9687 6.83951 32.3186 6.54395 31.5166 6.54395C30.7146 6.54395 30.0645 6.83951 30.0645 7.2041C30.0645 7.5687 30.7146 7.86426 31.5166 7.86426Z" fill="#4F4F74"/>
<path d="M35.0273 7.71484C35.6481 7.71484 36.1514 7.48618 36.1514 7.2041C36.1514 6.92203 35.6481 6.69336 35.0273 6.69336C34.4066 6.69336 33.9033 6.92203 33.9033 7.2041C33.9033 7.48618 34.4066 7.71484 35.0273 7.71484Z" fill="#4F4F74"/>
<path d="M12.6416 22.8867H16.1992V26.2207C16.1992 26.2803 16.1875 26.3394 16.1647 26.3945C16.1418 26.4496 16.1084 26.4996 16.0662 26.5418C16.0241 26.584 15.974 26.6174 15.9189 26.6402C15.8638 26.6631 15.8048 26.6748 15.7451 26.6748H13.4941C13.2683 26.6748 13.0517 26.5851 12.892 26.4254C12.7323 26.2657 12.6426 26.0491 12.6426 25.8232V22.8867H12.6416Z" fill="#32314B"/>
<path d="M16.8691 22.8867H20.4268V26.2422C20.4268 26.3569 20.3812 26.467 20.3001 26.5481C20.2189 26.6292 20.1089 26.6748 19.9941 26.6748H17.3027C17.188 26.6748 17.078 26.6292 16.9968 26.5481C16.9157 26.467 16.8701 26.3569 16.8701 26.2422V22.8867H16.8691Z" fill="#32314B"/>
<path d="M21.0938 22.8867H24.6514V26.2422C24.6514 26.3569 24.6058 26.467 24.5247 26.5481C24.4435 26.6292 24.3335 26.6748 24.2188 26.6748H21.5273C21.4126 26.6748 21.3026 26.6292 21.2214 26.5481C21.1403 26.467 21.0947 26.3569 21.0947 26.2422V22.8867H21.0938Z" fill="#32314B"/>
<path d="M25.3232 22.8867H28.8809V26.2422C28.8809 26.3569 28.8353 26.467 28.7541 26.5481C28.673 26.6292 28.563 26.6748 28.4482 26.6748H25.7568C25.6421 26.6748 25.532 26.6292 25.4509 26.5481C25.3698 26.467 25.3242 26.3569 25.3242 26.2422V22.8867H25.3232Z" fill="#32314B"/>
<path d="M29.5508 22.8867H33.1055V26.2422C33.1055 26.3569 33.0599 26.467 32.9787 26.5481C32.8976 26.6292 32.7876 26.6748 32.6729 26.6748H29.9805C29.8657 26.6748 29.7557 26.6292 29.6745 26.5481C29.5934 26.467 29.5479 26.3569 29.5479 26.2422V22.8867H29.5508Z" fill="#32314B"/>
<path d="M33.7773 22.8867H37.335V25.8232C37.335 25.9351 37.3129 26.0458 37.2702 26.1491C37.2274 26.2524 37.1646 26.3463 37.0855 26.4254C37.0065 26.5045 36.9126 26.5672 36.8093 26.61C36.706 26.6528 36.5952 26.6748 36.4834 26.6748H34.2324C34.112 26.6748 33.9965 26.627 33.9113 26.5418C33.8262 26.4566 33.7783 26.3411 33.7783 26.2207V22.8867H33.7773Z" fill="#32314B"/>
<path d="M12.7451 11.9434V17.9609L12.6416 17.9463L10.8838 17.7021L9.63088 17.5273C9.46305 17.5036 9.3094 17.4201 9.19817 17.2922C9.08695 17.1643 9.0256 17.0006 9.02539 16.8311V13.0732C9.02563 12.9039 9.08703 12.7402 9.19827 12.6125C9.30951 12.4848 9.46313 12.4015 9.63088 12.3779L10.8838 12.2031L12.6416 11.958L12.7451 11.9434Z" fill="#3E436D"/>
<path d="M12.6416 11.958V17.9473L10.8857 17.7021V12.2031L12.6416 11.958Z" fill="#32314B"/>
<path d="M42.7236 16.749L40.5518 17.0518V12.8525L42.7236 13.1553C42.8413 13.1714 42.9491 13.2299 43.0267 13.3198C43.1044 13.4097 43.1466 13.5248 43.1455 13.6436V16.2656C43.1454 16.3836 43.1027 16.4975 43.0251 16.5863C42.9476 16.6752 42.8405 16.733 42.7236 16.749V16.749Z" fill="#353B5B"/>
<path d="M37.2314 11.9434V17.9609L37.335 17.9463L39.0928 17.7021L40.3457 17.5273C40.5135 17.5036 40.6672 17.4201 40.7784 17.2922C40.8896 17.1643 40.951 17.0006 40.9512 16.8311V13.0732C40.9509 12.9039 40.8895 12.7402 40.7783 12.6125C40.6671 12.4848 40.5134 12.4015 40.3457 12.3779L39.0908 12.207L37.333 11.9619L37.2314 11.9434Z" fill="#3E436D"/>
<path d="M37.335 11.958V17.9473L39.0908 17.7021V12.2031L37.335 11.958Z" fill="#32314B"/>
<path d="M18.6475 19.9033C21.3819 19.9033 23.5986 17.6866 23.5986 14.9521C23.5986 12.2177 21.3819 10.001 18.6475 10.001C15.913 10.001 13.6963 12.2177 13.6963 14.9521C13.6963 17.6866 15.913 19.9033 18.6475 19.9033Z" fill="white"/>
<path d="M18.6475 18.543C20.6306 18.543 22.2383 16.9353 22.2383 14.9521C22.2383 12.969 20.6306 11.3613 18.6475 11.3613C16.6643 11.3613 15.0566 12.969 15.0566 14.9521C15.0566 16.9353 16.6643 18.543 18.6475 18.543Z" fill="#27273D"/>
<path d="M19.8086 14.9521C20.459 14.9521 20.9863 14.4249 20.9863 13.7744C20.9863 13.124 20.459 12.5967 19.8086 12.5967C19.1582 12.5967 18.6309 13.124 18.6309 13.7744C18.6309 14.4249 19.1582 14.9521 19.8086 14.9521Z" fill="white"/>
<path d="M31.124 19.9033C33.8585 19.9033 36.0752 17.6866 36.0752 14.9521C36.0752 12.2177 33.8585 10.001 31.124 10.001C28.3896 10.001 26.1729 12.2177 26.1729 14.9521C26.1729 17.6866 28.3896 19.9033 31.124 19.9033Z" fill="white"/>
<path d="M31.124 18.543C33.1072 18.543 34.7148 16.9353 34.7148 14.9521C34.7148 12.969 33.1072 11.3613 31.124 11.3613C29.1409 11.3613 27.5332 12.969 27.5332 14.9521C27.5332 16.9353 29.1409 18.543 31.124 18.543Z" fill="#27273D"/>
<path d="M32.3027 14.9521C32.9532 14.9521 33.4805 14.4249 33.4805 13.7744C33.4805 13.124 32.9532 12.5967 32.3027 12.5967C31.6523 12.5967 31.125 13.124 31.125 13.7744C31.125 14.4249 31.6523 14.9521 32.3027 14.9521Z" fill="white"/>
</svg>
