<svg width="15" height="13" viewBox="0 0 15 13" fill="none" xmlns="http://www.w3.org/2000/svg">
<path d="M7.5 4.90875L6.66188 3.23156C6.45375 2.81625 6.09281 2.21906 5.58188 1.73625C5.07938 1.26094 4.4775 0.9375 3.75 0.9375C2.17875 0.9375 0.9375 2.18062 0.9375 3.675C0.9375 4.81031 1.45688 5.61188 2.68875 6.83438C3.00469 7.1475 3.36469 7.48594 3.76313 7.85906C4.80188 8.83406 6.09375 10.0472 7.5 11.6691C8.90625 10.0472 10.1981 8.83406 11.2369 7.85906C11.6353 7.48594 11.9962 7.14656 12.3112 6.83438C13.5431 5.61188 14.0625 4.81031 14.0625 3.675C14.0625 2.18062 12.8213 0.9375 11.25 0.9375C10.5216 0.9375 9.92063 1.26094 9.41813 1.73625C8.90719 2.21906 8.54625 2.81625 8.33813 3.23156L7.5 4.90875ZM7.8675 12.6825C7.82235 12.736 7.76608 12.779 7.70261 12.8084C7.63913 12.8379 7.56999 12.8532 7.5 12.8532C7.43001 12.8532 7.36087 12.8379 7.29739 12.8084C7.23392 12.779 7.17765 12.736 7.1325 12.6825C5.63156 10.8994 4.27313 9.62438 3.15469 8.57531C1.21875 6.7575 0 5.61469 0 3.675C0 1.64531 1.67813 0 3.75 0C5.25 0 6.29906 0.984375 6.94125 1.8825C7.185 2.22469 7.37063 2.55375 7.5 2.8125C7.66218 2.48866 7.84898 2.17775 8.05875 1.8825C8.70094 0.983437 9.75 0 11.25 0C13.3219 0 15 1.64531 15 3.675C15 5.61469 13.7813 6.7575 11.8453 8.57531C10.7269 9.62531 9.36844 10.9012 7.8675 12.6825Z" fill="#FF3636"/>
<path d="M1 5.5L7.5 12.5L8.5 11.5L10 9.5L13.5 6.5L14.5 4.5L14 2L13 1L11.5 0.5L9.5 1L7.5 4L6.5 2L4.5 0.5H2.5L0.5 2.5L1 5.5Z" fill="#FF3636"/>
</svg>
