<svg version="1.2" xmlns="http://www.w3.org/2000/svg" viewBox="0 0 80 91" width="80" height="91"><style>.a{fill:#f86b7e}.b{fill:#eedcdc}.c{fill:#ffbdb1}.d{fill:#ff958d}.e{fill:#534159}.f{fill:#ef4949}</style><path class="a" d="m2.9 12.6l8.2-4.5 52.3-8-0.5 79.3-51.1 6.9"/><path class="b" d="m0.1 36.8l79.7-28.7-4.6 7 3.4 4.3-77.4 27.5z"/><path class="c" d="m5.7 13.5c0.5-0.2 7.3-4 7.3-4l47-7.1 7.1 3.7z"/><path class="d" d="m69.9 3.2l-0.4 86.7-57.1 0.8-9.5-78.1z"/><path fill-rule="evenodd" class="e" d="m10.2 81.1q-0.6 0-1.1-0.1c-1.2-0.3-2.2-1-2.7-2-0.6-1-0.7-2.2-0.4-3.3q0.1-0.3 0.2-0.6-0.5-1-0.8-2.5c-0.2-1.7-0.2-3.1 0.3-4.3q-0.1-0.2-0.3-0.4c-0.5-1.2-1.3-3.2-0.7-5.3q-0.3-0.4-0.6-0.9-0.9-1.9-0.3-4.8c0.1-0.6 0.3-1.5 0.8-2.3-0.4-0.8-0.6-1.5-0.7-2.2-0.3-1.3-0.6-3-0.1-4.7q0-0.1 0-0.1-0.7-1.2-1.1-3c-0.3-1.5-0.6-3.4 0.2-5.1-0.7-0.9-1.1-2.1-1.3-3.3-0.2-1.7 0.1-3.3 0.8-4.7q-0.4-0.7-0.8-1.4c-0.6-1.2-1.3-2.9-0.8-4.5 0.3-1 1.2-1.8 2.2-2.2 0.8-0.2 1.6-0.1 2.2 0.4 0.3 0.2 0.3 0.7 0.1 0.9-0.2 0.3-0.7 0.4-0.9 0.1-0.4-0.2-0.8-0.2-1-0.1-0.6 0.2-1.1 0.7-1.3 1.2-0.4 1.2 0.2 2.6 0.7 3.6q0.2 0.5 0.5 0.9 0.1-0.1 0.1-0.2c1-1 2.1-1.6 3.3-1.7 1.4 0 2.8 0.9 3.1 2.2 0.2 0.9-0.1 1.8-0.8 2.4-1 0.9-2.3 1.3-3.5 0.9-0.8-0.2-1.5-0.7-2.1-1.3-0.4 1-0.6 2.2-0.4 3.3q0.1 1.2 0.7 2.2c0.9-1 2.5-1.7 3.9-1.2 1.1 0.4 1.8 1.4 1.9 2.7 0 1-0.4 1.9-1.3 2.3-0.9 0.4-2.1 0.3-3.2-0.4q-0.6-0.4-1.1-0.9c-0.3 1.2-0.1 2.5 0.1 3.6q0.2 1 0.6 1.8c0.7-1 1.7-1.7 2.8-1.9 0.9-0.1 2 0.2 2.8 0.9 0.7 0.7 1 1.5 1 2.3-0.1 1-0.7 1.8-1.6 2.3-1.2 0.6-2.7 0.6-3.8 0q-0.5-0.3-0.9-0.7c-0.1 1.1 0.1 2.2 0.3 3.1q0.1 0.7 0.3 1.2 0.6-0.7 1.5-1.1c1.2-0.5 2.6-0.2 3.6 0.6 0.8 0.7 1.2 1.6 1 2.5-0.1 0.9-0.7 1.6-1.6 2-1.1 0.4-2.4 0.4-3.4-0.2q-0.7-0.5-1.2-1.1c-0.1 0.4-0.3 0.9-0.3 1.2q-0.5 2.4 0.2 3.9 0 0 0.1 0.1c0.5-0.8 1.3-1.4 2.2-1.7 1-0.4 2-0.3 2.9 0.1q0.2 0.1 0.3 0.3c0.4 0.7 0.4 1.7-0.1 2.5-0.4 0.9-1.3 1.6-2.3 1.8-0.9 0.1-1.8-0.1-2.5-0.6-0.2 1 0.1 2.2 0.6 3.4 0.8-1 2.1-1.6 3.3-1.5 0.9 0 1.8 0.6 2.4 1.5 0.5 0.7 0.5 1.6 0.2 2.3-0.6 1.6-2.6 2.1-4 1.5q-1-0.3-1.7-1.1-0.2 1.1 0 2.7c0.1 0.4 0.2 0.9 0.4 1.4q0.4-0.5 1-0.8c0.9-0.4 2.2-0.5 3 0.2 0.7 0.6 0.8 1.6 0.3 2.4-0.6 1-1.9 1.7-3.1 1.3q-0.6-0.2-1.1-0.6c-0.1 0.8 0 1.5 0.3 2 0.4 0.7 1.1 1.2 1.9 1.4 0.8 0.2 1.7 0 2.3-0.4 0.3-0.2 0.7-0.1 0.9 0.2 0.2 0.3 0.1 0.7-0.2 0.9-0.6 0.5-1.4 0.7-2.2 0.7zm-2.4-6.1q0.3 0.5 0.9 0.7c0.5 0.2 1.2-0.3 1.5-0.7q0.3-0.5 0-0.8c-0.3-0.3-1-0.2-1.5 0q-0.5 0.3-0.9 0.8zm-0.6-6.8q0.7 1.1 1.6 1.4c0.9 0.3 2.1 0.1 2.4-0.7 0.2-0.5 0-1-0.2-1.2-0.3-0.5-0.8-0.9-1.3-0.9-1.1-0.1-2 0.6-2.5 1.4zm-1-5.9c0.6 0.4 1.3 0.7 2 0.6 0.6-0.1 1.1-0.5 1.4-1.1 0.1-0.4 0.2-0.8 0.1-1.1-0.5-0.2-1.1-0.2-1.6 0-0.8 0.3-1.5 0.9-1.9 1.6zm-0.1-7.7q0.5 0.9 1.2 1.3c0.6 0.4 1.5 0.5 2.2 0.2 0.3-0.2 0.7-0.5 0.8-1 0.1-0.6-0.3-1.1-0.5-1.3-0.7-0.5-1.6-0.6-2.2-0.4-0.7 0.3-1.1 0.7-1.5 1.2zm-0.8-7.1q0.5 0.7 1.2 1.1c0.7 0.4 1.7 0.4 2.5-0.1 0.3-0.1 0.8-0.5 0.8-1.2 0.1-0.6-0.3-1-0.5-1.2-0.5-0.4-1.2-0.6-1.7-0.6-1.1 0.2-1.9 1-2.3 2zm-0.9-8.1q0.6 0.6 1.3 1c0.3 0.3 1.2 0.7 1.9 0.4 0.6-0.2 0.6-0.8 0.6-1.1-0.1-0.5-0.4-1.2-1-1.4-1-0.4-2.1 0.2-2.8 1.1zm-0.3-7.9q0.8 1 1.8 1.3c0.7 0.2 1.6-0.1 2.1-0.6 0.3-0.3 0.6-0.7 0.5-1.2-0.2-0.7-1-1.2-1.8-1.2-1 0.1-1.9 0.8-2.3 1.3q-0.2 0.2-0.3 0.4z"/><path class="f" d="m34.7 69.3q-5-16.3-10.1-32.6c-1-3.1-1.9-6.7 0.1-9.2 1.6-2.1 4.8-2.5 7.2-1.5 2.4 1 4.1 3.3 5 5.7 1 2.5 1.3 5.1 1.6 7.7 0.2-3.7 0.9-8.3 2.8-11.5 2-3.2 6.1-5.4 9.5-3.9 2.3 1 3.7 3.4 4.2 5.9 0.4 2.4 0 4.9-0.6 7.3-3.3 13.1-10.8 24.8-18.2 36.1-0.6-1.3-1-2.7-1.5-4z"/></svg>